# xmcd
#
# Track frame offsets: 
#        150
#        19154
#        37982
#        56191
#        74634
#        93220
#        112541
#        132295
#        150602
#        171802
#
# Disc length: 2531 seconds
#
# Revision: 0
# Processed by: cddbd v1.5.2PL0 Copyright (c) Steve Scherf et al.
# Submitted via: ExactAudioCopy v1.0b1
#
DISCID=7b09e10a
DTITLE=Ginuwine - S.O.U.L.
DYEAR=2011
DGENRE=R&B
TTITLE0=Pony
TTITLE1=Differences
TTITLE2=What's So Different?
TTITLE3=Stingy
TTITLE4=In Those Jeans
TTITLE5=So Anxious
TTITLE6=Non Of Ur Friends Business
TTITLE7=There It Is (Rhyme Radio Remix)
TTITLE8=I'm Feelin' You
TTITLE9=She's Out Of My Life
EXTD=
EXTT0=
EXTT1=
EXTT2=
EXTT3=
EXTT4=
EXTT5=
EXTT6=
EXTT7=
EXTT8=
EXTT9=
PLAYORDER=
